HIERARCHY
ROOT Hips
{
	OFFSET 0.000000 0.000000 0.000000
	CHANNELS 6 Xposition Yposition Zposition Zrotation Xrotation Yrotation
	JOINT Spine
	{
		OFFSET -4.795779 15.170658 3.512695
		CHANNELS 3 Zrotation Xrotation Yrotation
		JOINT Chest
		{
			OFFSET -9.736883 30.801022 7.131836
			CHANNELS 3 Zrotation Xrotation Yrotation
			JOINT Neck
			{
				OFFSET 0.073242 3.515625 0.927734
				CHANNELS 3 Zrotation Xrotation Yrotation
				JOINT Head
				{
					OFFSET -11.757151 13.140762 8.380276
					CHANNELS 3 Zrotation Xrotation Yrotation
					End Site
					{
						OFFSET 0.0 5.0 0.0
					}
				}
			}
			JOINT LeftShoulder
			{
				OFFSET -1.298586 1.410794 15.112305
				CHANNELS 3 Zrotation Xrotation Yrotation
				JOINT LeftArm
				{
					OFFSET 1.915041 -4.486966 0.946045
					CHANNELS 3 Zrotation Xrotation Yrotation
					JOINT LeftForeArm
					{
						OFFSET -26.470655 -9.112417 4.512268
						CHANNELS 3 Zrotation Xrotation Yrotation
						JOINT LeftHand
						{
							OFFSET -25.201708 2.081168 2.445740
							CHANNELS 3 Zrotation Xrotation Yrotation
							End Site
							{
								OFFSET 0.0 5.0 0.0
							}
						}
					}
				}
			}
			JOINT RightShoulder
			{
				OFFSET -2.283183 6.568193 -13.561135
				CHANNELS 3 Zrotation Xrotation Yrotation
				JOINT RightArm
				{
					OFFSET 1.666728 -3.492022 -2.497213
					CHANNELS 3 Zrotation Xrotation Yrotation
					JOINT RightForeArm
					{
						OFFSET -23.694736 -15.023458 -1.431682
						CHANNELS 3 Zrotation Xrotation Yrotation
						JOINT RightHand
						{
							OFFSET -23.277920 1.644552 9.175517
							CHANNELS 3 Zrotation Xrotation Yrotation
							End Site
							{
								OFFSET 0.0 5.0 0.0
							}
						}
					}
				}
			}
		}
	}
	JOINT LeftUpLeg
	{
		OFFSET -1.030922 -1.538086 8.044434
		CHANNELS 3 Zrotation Xrotation Yrotation
		JOINT LeftLeg
		{
			OFFSET -32.843781 -22.607422 5.072021
			CHANNELS 3 Zrotation Xrotation Yrotation
			JOINT LeftFoot
			{
				OFFSET 17.751028 -33.434814 1.055989
				CHANNELS 3 Zrotation Xrotation Yrotation
				End Site
				{
					OFFSET 0.0 5.0 0.0
				}
			}
		}
	}
	JOINT RightUpLeg
	{
		OFFSET 1.030922 1.538086 -8.044434
		CHANNELS 3 Zrotation Xrotation Yrotation
		JOINT RightLeg
		{
			OFFSET 8.472061 -26.171875 -29.266357
			CHANNELS 3 Zrotation Xrotation Yrotation
			JOINT RightFoot
			{
				OFFSET 20.703545 -23.952505 -20.783615
				CHANNELS 3 Zrotation Xrotation Yrotation
				End Site
				{
					OFFSET 0.0 5.0 0.0
				}
			}
		}
	}
}
MOTION
Frames: 20
Frame Time: 0.033332
110.025360 78.169197 -511.567444 0.545542 -3.235468 -30.145222 2.356280 -5.450285 4.734884 6.583921 -0.989864 6.244819 -0.000003 -9.009078 0.000001 -2.224943 5.002892 -14.507649 -3.901024 24.806230 -1.687267 -0.000000 -0.000000 -0.000000 20.223485 0.000003 -0.000000 -0.000002 5.308535 0.000003 2.075172 37.600642 6.203610 -0.000000 0.000000 -0.000000 -7.725001 -0.000005 -0.000001 0.000001 6.714350 0.000000 18.708152 2.326732 -11.677469 -26.717517 -0.001309 0.036315 6.461682 -11.153645 5.754647 -44.573972 -14.934186 8.543664 44.188808 0.002030 0.035802 -5.965588 13.263241 -6.029133
111.100937 79.079002 -515.100403 0.879131 -3.446820 -29.777668 2.309431 -6.284650 4.655608 8.594616 -1.286950 6.355874 -0.000005 -8.789200 -0.000002 -0.037701 3.913653 -14.572934 -3.549930 26.887423 0.589030 -0.000000 0.000000 0.000000 20.083589 0.000001 -0.000002 -0.000002 1.356857 0.000001 -1.790162 34.029394 9.664123 0.000000 -0.000000 0.000000 -3.238276 -0.000004 0.000002 0.000001 3.902711 0.000000 21.075901 2.622571 -11.817147 -31.529451 -0.001521 0.028944 6.741487 -11.166390 5.633524 -43.950780 -14.640177 9.407113 43.573333 0.002011 0.028569 -5.783171 14.443220 -5.599650
112.560738 80.013390 -520.524475 1.109469 -3.115827 -29.162517 1.756494 -6.366776 4.418889 8.909588 -1.093601 7.127033 -0.000003 -10.486804 0.000001 0.208392 4.923988 -18.176395 -2.576166 28.088167 1.366826 0.000000 -0.000000 -0.000000 24.161167 0.000002 0.000002 -0.000002 5.399458 -0.000001 -4.770042 32.718526 11.623643 -0.000000 0.000000 0.000000 -0.734382 -0.000006 0.000003 0.000002 4.672073 -0.000001 23.392474 3.187847 -11.704086 -36.928915 -0.001752 0.027397 6.782941 -11.118512 5.605356 -42.417027 -14.930740 10.684441 41.782840 0.001940 0.027237 -5.728496 14.455232 -5.576329
112.607803 80.923241 -519.302185 1.409226 -3.102021 -28.754612 1.849830 -7.448226 4.408351 7.999866 -2.126551 7.074249 -0.000005 -10.325937 -0.000002 0.869536 5.322294 -18.198521 2.053478 31.442653 -2.026371 -0.000000 0.000000 -0.000000 19.293263 -0.000003 0.000001 0.000002 7.637577 0.000002 -9.053399 33.787048 13.547252 0.000000 0.000000 -0.000000 3.657922 -0.000008 0.000002 0.000000 7.210936 -0.000000 25.506821 3.159457 -11.342531 -41.908725 -0.001945 0.016839 7.113950 -11.263858 5.328753 -41.622600 -13.876156 11.308174 38.593524 0.001819 0.016945 -4.495116 14.454685 -5.442213
113.005318 81.896278 -520.822876 1.586575 -2.507582 -29.725089 1.486234 -7.012040 4.837987 8.204226 -1.645622 7.787705 0.000004 -10.833010 -0.000004 0.639656 4.550085 -19.692025 1.538564 27.260581 -0.068186 0.000000 0.000000 0.000000 8.831815 0.000004 0.000002 0.000000 9.421070 0.000001 -6.518028 30.389110 10.254076 -0.000000 0.000000 -0.000000 1.601651 -0.000006 0.000002 0.000002 4.420285 -0.000001 27.756833 4.904380 -10.715053 -45.601617 -0.002083 0.020261 6.726791 -11.527084 5.275904 -42.001263 -13.790594 12.913361 37.670298 0.001779 0.020523 -3.876682 14.949099 -5.937638
112.574806 82.629105 -518.325684 2.263940 -2.439283 -30.880681 1.845385 -6.764170 5.591517 9.075639 -1.142452 8.751307 -0.000001 -10.838257 -0.000004 1.047076 2.830398 -19.087738 -4.352158 20.126953 5.683446 -0.000000 0.000000 -0.000000 6.550425 0.000001 -0.000000 0.000002 6.518520 0.000005 -8.480556 28.975439 12.767508 -0.000000 0.000000 -0.000000 6.609434 -0.000002 0.000002 0.000001 1.986329 -0.000000 29.850416 5.597323 -10.013918 -48.455216 -0.002181 0.014712 7.169020 -13.257493 5.621299 -42.263134 -13.875307 13.393881 35.795878 0.001708 0.015141 -2.996579 14.652645 -6.181437
112.357712 83.422592 -518.791321 2.049471 -1.962389 -30.868200 0.969859 -7.125148 4.816452 8.632279 -1.413582 9.282383 -0.000007 -11.521056 -0.000003 1.706910 3.353879 -20.952109 -4.184914 26.038462 5.855802 0.000000 0.000000 0.000000 4.427273 0.000001 0.000000 -0.000001 7.182960 0.000001 -9.046193 31.707662 11.549848 -0.000000 0.000000 0.000000 5.448416 -0.000006 0.000003 0.000002 2.084247 -0.000000 31.527838 5.349816 -10.382119 -51.812385 -0.002291 0.033195 6.384050 -13.524673 5.491210 -40.610063 -14.044209 14.949185 33.194068 0.001591 0.033826 -3.666925 16.064461 -5.635589
111.709534 83.552177 -518.100220 2.298486 -2.138658 -32.000101 0.781464 -7.764102 5.161985 9.333593 -1.145785 9.570371 -0.000008 -11.772843 -0.000003 0.580844 2.950029 -21.503761 -6.758911 30.618049 8.226974 -0.000000 0.000000 0.000000 15.320607 0.000000 -0.000001 0.000000 8.504845 0.000001 -11.887463 27.957676 11.344401 0.000000 0.000000 0.000000 10.260363 -0.000006 0.000003 0.000002 2.461930 -0.000001 35.090142 7.383964 -11.272535 -55.365394 -0.002395 0.013580 6.058491 -15.774271 5.429947 -40.820486 -14.487290 15.435211 33.585731 0.001616 0.014353 -4.848843 15.576487 -5.497190
110.318352 83.688721 -513.484070 2.970558 -2.384081 -32.134799 0.327523 -9.554727 4.835102 9.879892 -2.433502 9.972905 0.000002 -11.389915 0.000000 -0.974627 4.211843 -20.385918 -1.828624 34.880799 5.038217 0.000000 -0.000000 0.000000 15.607365 0.000001 0.000001 0.000000 10.893335 -0.000004 -19.496809 25.359875 27.116721 0.000000 0.000000 -0.000000 21.450943 -0.000009 0.000003 0.000000 10.847875 -0.000001 36.273140 6.566264 -11.777026 -56.778206 -0.002436 0.000842 4.509503 -15.757303 4.210209 -41.225080 -14.814129 14.760089 33.389903 0.001607 0.001680 -2.860932 15.500574 -5.455038
110.727859 83.783241 -520.109680 3.219893 -2.822764 -32.792816 -0.332612 -8.629400 5.007240 11.577127 -0.463906 8.743030 -0.000005 -12.680334 0.000004 0.801958 3.912376 -23.738424 2.947439 40.510473 2.842885 -0.000000 0.000000 0.000000 18.628818 -0.000000 -0.000003 0.000001 11.138130 -0.000001 -13.022826 23.299441 5.529038 0.000000 0.000000 -0.000000 8.120165 -0.000007 0.000002 0.000002 -1.426796 -0.000000 38.571847 6.543908 -9.443068 -60.485087 -0.002535 0.000230 5.180870 -15.570842 5.107255 -40.849156 -14.264716 15.524172 33.725625 0.001619 0.001216 -2.898896 15.021136 -5.308859
110.236755 83.721359 -520.926331 4.046673 -2.904213 -32.757884 -0.398599 -9.517847 5.138538 11.837602 -1.487992 8.589088 -0.000001 -11.891744 -0.000001 3.607576 2.278163 -22.580951 5.871872 41.512753 2.235747 -0.000000 0.000000 0.000000 16.173890 -0.000002 0.000004 -0.000000 11.319977 0.000001 -20.830957 22.744129 26.765123 0.000000 0.000000 -0.000000 29.396254 -0.000006 0.000002 0.000001 9.428071 -0.000001 39.745848 6.417762 -10.572098 -61.730044 -0.002568 -0.042578 4.015814 -15.157212 4.006753 -40.398112 -15.435740 14.340879 31.963101 0.001548 -0.041486 -2.964216 15.669429 -5.047906
109.836288 83.443169 -523.970581 3.531855 -3.033381 -33.854619 -1.680267 -9.228231 4.346360 14.231016 -0.657603 9.875269 -0.000005 -12.773003 0.000000 3.976051 2.481512 -24.202525 -10.758439 41.527920 17.847877 -0.000000 -0.000000 -0.000000 57.802845 -0.000001 0.000001 -0.000001 7.658558 0.000006 -22.605680 21.921807 33.176808 0.000000 0.000000 -0.000000 45.902369 -0.000004 0.000005 0.000001 8.882528 0.000000 41.707093 7.410002 -10.223325 -63.366663 -0.002607 -0.014225 3.924638 -16.330515 4.157015 -39.769052 -15.572945 15.626486 31.711320 0.001538 -0.013058 -2.074651 15.285089 -5.571099
108.667244 83.602722 -523.586914 3.619179 -3.190488 -34.965372 -1.638229 -7.883577 5.146709 14.058042 0.493726 9.871962 -0.000005 -13.911295 0.000000 3.888652 1.291898 -26.299473 -24.704194 41.830721 27.420896 0.000000 0.000000 0.000000 56.236175 -0.000001 -0.000000 -0.000001 8.609758 -0.000001 -24.367319 27.274802 23.156816 -0.000000 0.000000 -0.000000 30.655201 -0.000007 0.000005 0.000001 6.035923 -0.000001 42.831050 8.093585 -10.603894 -63.940182 -0.002615 -0.004066 5.664455 -17.600998 5.255162 -40.284626 -16.798630 15.702463 32.858352 0.001586 -0.002901 -2.375195 15.223471 -6.031005
107.638916 83.244736 -526.085815 3.989063 -3.395509 -36.446074 -1.743182 -9.337897 5.058040 13.489173 -0.434250 9.178351 0.000001 -13.435691 -0.000001 5.179321 1.581206 -26.073682 -11.499209 43.733896 17.700135 0.000000 0.000000 0.000000 58.921917 0.000000 -0.000001 -0.000000 6.700364 -0.000002 -25.638596 26.755334 22.485527 -0.000000 0.000000 -0.000000 36.502286 -0.000005 0.000008 0.000002 5.301542 -0.000001 43.981983 9.266707 -9.619631 -64.499711 -0.002628 -0.032571 4.908308 -18.674883 4.846271 -41.083222 -15.162704 15.775474 30.983928 0.001504 -0.031325 -2.164804 17.073986 -5.833916
105.986092 82.999832 -527.168823 4.050988 -3.234842 -39.018599 -2.235583 -10.084691 5.001144 13.627273 -0.789065 9.889616 -0.000005 -12.914632 -0.000001 6.634110 0.917751 -25.000794 -6.124807 39.492839 12.292976 -0.000000 0.000000 -0.000000 55.704623 0.000003 0.000003 0.000001 6.063899 -0.000001 -22.354816 17.182324 32.570167 0.000000 0.000000 0.000000 41.174345 -0.000004 0.000003 0.000000 7.609605 0.000001 45.900780 10.030123 -10.650569 -64.415781 -0.002626 -0.071033 3.800753 -18.229446 4.239566 -42.330603 -16.381680 16.291463 32.830377 0.001586 -0.069845 -2.358086 18.849720 -5.641120
104.794334 82.954369 -530.526489 4.352088 -3.351757 -40.157901 -1.818773 -10.331928 5.516800 13.282586 -0.797366 10.169198 -0.000007 -12.400563 -0.000000 7.421322 0.519835 -24.562480 -3.745894 38.290551 11.258167 -0.000000 0.000000 0.000000 60.040972 -0.000002 -0.000002 0.000001 3.979659 -0.000004 -24.089434 23.346909 23.452412 0.000000 0.000000 0.000000 28.612921 -0.000006 0.000003 0.000003 7.127007 -0.000000 46.154927 10.076827 -9.523968 -64.415782 -0.002626 -0.064479 4.167938 -17.781750 4.689506 -42.211386 -15.019442 16.486337 30.228558 0.001467 -0.063218 -3.379161 19.114136 -5.594041
103.891418 82.348709 -537.194702 3.757301 -3.467138 -43.478600 -3.224402 -10.507809 4.946828 16.307146 -0.900940 10.180810 -0.000006 -12.365597 0.000002 7.772813 1.347510 -23.668214 -2.210096 37.310451 12.370272 -0.000000 0.000000 -0.000000 58.138571 0.000003 0.000004 0.000000 6.021930 0.000000 -17.212712 28.608210 25.429393 -0.000000 0.000000 -0.000000 27.186112 -0.000005 0.000004 0.000002 7.406770 0.000001 48.229429 10.169688 -10.180135 -63.772322 -0.002616 -0.046360 4.270937 -19.395695 5.526112 -42.286503 -16.976302 17.943385 31.739289 0.001537 -0.045170 -4.078490 19.052271 -5.242263
100.977264 82.415825 -536.876038 3.678602 -3.700346 -42.876593 -3.870978 -10.706413 5.459944 16.104128 -0.965538 8.735367 -0.000003 -12.169762 -0.000002 7.001563 1.565007 -23.771456 8.224688 40.201249 4.644375 0.000000 0.000000 0.000000 48.990267 0.000004 0.000001 0.000000 4.888887 -0.000002 -17.405817 29.698534 20.911624 0.000000 0.000000 -0.000000 17.953887 -0.000009 0.000002 -0.000001 5.819108 -0.000002 48.685359 10.479704 -10.437434 -63.240770 -0.002603 -0.065459 4.536411 -21.189498 5.280287 -41.417371 -15.610238 17.429907 29.976776 0.001457 -0.064252 -4.465170 20.351454 -5.116613
98.040062 82.275169 -538.582703 4.464529 -4.129426 -43.416157 -4.118626 -11.165753 5.723074 16.002945 -1.253718 8.892497 0.000002 -13.124456 -0.000004 8.033529 1.579244 -25.949434 8.532597 39.400698 5.577112 -0.000000 0.000000 0.000000 50.556953 0.000000 0.000002 0.000000 7.140997 0.000007 -19.008383 24.134902 21.457142 0.000000 -0.000000 0.000000 19.380690 -0.000008 0.000003 0.000001 4.783976 -0.000002 48.754691 9.697510 -9.489116 -62.639278 -0.002589 -0.082811 4.542514 -20.137163 5.267908 -41.628014 -14.776595 16.502140 27.598781 0.001351 -0.081568 -3.696652 19.682550 -5.229750
94.910301 82.369156 -540.394287 3.600204 -4.280570 -46.090284 -4.660967 -11.992401 5.221909 16.744498 -1.484374 8.847197 0.000002 -12.542195 0.000001 8.813662 1.016347 -25.003748 8.746078 38.374798 5.722390 -0.000000 0.000000 0.000000 47.899184 0.000003 0.000008 0.000002 5.336511 0.000002 -17.600523 23.147174 21.711827 -0.000000 0.000000 -0.000000 20.024143 -0.000009 0.000000 0.000003 4.504211 0.000002 49.936238 9.668202 -9.545119 -61.352362 -0.002558 -0.069147 4.182408 -20.546754 5.393319 -40.913261 -13.944451 17.958619 23.933861 0.001184 -0.067882 -3.780639 21.680729 -4.562087
